<svg width="220" height="144" viewBox="0 0 220 144" fill="none" xmlns="http://www.w3.org/2000/svg">
<path d="M98.6 102.6C98.6 110.867 96.2667 118.067 91.6 124.2C87.0667 130.333 81 135.133 73.4 138.6C65.9333 141.933 57.7333 143.6 48.8 143.6C39.3333 143.6 30.9333 141.733 23.6 138C16.2667 134.133 10.4667 129.067 6.2 122.8C2.06667 116.533 1.49012e-07 109.533 1.49012e-07 101.8C1.49012e-07 95.8 1.4 90.4 4.2 85.6C7.13333 80.6667 10.7333 76.5333 15 73.2C19.4 69.8667 23.8667 67.4667 28.4 66C24.2667 64.2667 20.4 62 16.8 59.2C13.2 56.2667 10.3333 52.8667 8.2 49C6.06667 45.1333 5 40.8667 5 36.2C5 30.3333 6.26667 25.2 8.8 20.8C11.4667 16.2667 14.9333 12.4667 19.2 9.39999C23.4667 6.19999 28.2 3.86666 33.4 2.4C38.7333 0.799994 44.0667 -7.62939e-06 49.4 -7.62939e-06C54.6 -7.62939e-06 59.8 0.799994 65 2.4C70.3333 3.86666 75.1333 6.13333 79.4 9.19999C83.8 12.2667 87.2667 16.0667 89.8 20.6C92.4667 25 93.8 30.1333 93.8 36C93.8 40.6667 92.6667 45 90.4 49C88.2667 52.8667 85.4 56.2667 81.8 59.2C78.2 62 74.2667 64.2667 70 66C75.2 67.7333 79.9333 70.4 84.2 74C88.6 77.4667 92.0667 81.6 94.6 86.4C97.2667 91.2 98.6 96.6 98.6 102.6ZM84.8 101.6C84.8 96.8 83.7333 92.6 81.6 89C79.6 85.2667 76.8 82.1333 73.2 79.6C69.7333 77.0667 65.8667 75.1333 61.6 73.8C57.4667 72.4667 53.2667 71.8 49 71.8C43.2667 71.8 37.6667 73.0667 32.2 75.6C26.8667 78 22.4667 81.4667 19 86C15.6667 90.4 14 95.6667 14 101.8C14 106.467 15 110.6 17 114.2C19.1333 117.8 21.9333 120.933 25.4 123.6C28.8667 126.133 32.6667 128.067 36.8 129.4C41.0667 130.733 45.3333 131.4 49.6 131.4C55.3333 131.4 60.8667 130.2 66.2 127.8C71.6667 125.267 76.1333 121.733 79.6 117.2C83.0667 112.667 84.8 107.467 84.8 101.6ZM18.6 36.8C18.6 41.8667 20.1333 46.2667 23.2 50C26.4 53.6 30.4 56.3333 35.2 58.2C40 60.0667 44.6667 61 49.2 61C54 61 58.7333 60.0667 63.4 58.2C68.2 56.2 72.1333 53.4 75.2 49.8C78.4 46.0667 80 41.6 80 36.4C80 31.3333 78.5333 27 75.6 23.4C72.6667 19.8 68.8 17.0667 64 15.2C59.3333 13.3333 54.3333 12.4 49 12.4C43.9333 12.4 39 13.4 34.2 15.4C29.5333 17.2667 25.7333 20.0667 22.8 23.8C20 27.4 18.6 31.7333 18.6 36.8ZM168.555 144C161.088 144 154.155 142.6 147.755 139.8C141.355 136.867 135.821 132.933 131.155 128C126.488 122.933 122.821 117.133 120.155 110.6C117.621 104.067 116.355 97.0667 116.355 89.6C116.355 79.8667 118.555 70.9333 122.955 62.8C127.488 54.6667 133.688 48.2 141.555 43.4C149.421 38.4667 158.355 36 168.355 36C178.621 36 187.555 38.4667 195.155 43.4C202.888 48.3333 208.955 54.8667 213.355 63C217.755 71 219.955 79.8 219.955 89.4C219.955 90.4667 219.955 91.5333 219.955 92.6C219.955 93.5333 219.888 94.2667 219.755 94.8H130.555C131.221 102.267 133.288 108.933 136.755 114.8C140.355 120.533 144.955 125.133 150.555 128.6C156.288 131.933 162.488 133.6 169.155 133.6C175.955 133.6 182.355 131.867 188.355 128.4C194.488 124.933 198.755 120.4 201.155 114.8L212.955 118C210.821 122.933 207.555 127.4 203.155 131.4C198.755 135.4 193.555 138.533 187.555 140.8C181.688 142.933 175.355 144 168.555 144ZM130.155 85H207.155C206.621 77.4 204.555 70.7333 200.955 65C197.488 59.2667 192.888 54.8 187.155 51.6C181.555 48.2667 175.355 46.6 168.555 46.6C161.755 46.6 155.555 48.2667 149.955 51.6C144.355 54.8 139.755 59.3333 136.155 65.2C132.688 70.9333 130.688 77.5333 130.155 85Z" fill="black"/>
<path d="M91.6 124.2L88.4167 121.778L88.3998 121.8L88.3833 121.822L91.6 124.2ZM73.4 138.6L75.0306 142.253L75.0453 142.246L75.06 142.239L73.4 138.6ZM23.6 138L21.7344 141.538L21.7597 141.552L21.7853 141.565L23.6 138ZM6.2 122.8L2.86091 125.002L2.87708 125.027L2.8936 125.051L6.2 122.8ZM4.2 85.6L0.761857 83.5557L0.753311 83.5701L0.744885 83.5845L4.2 85.6ZM15 73.2L12.5846 70.0116L12.5609 70.0296L12.5374 70.0479L15 73.2ZM28.4 66L29.6313 69.8058L39.8979 66.4842L29.9469 62.3112L28.4 66ZM16.8 59.2L14.2733 62.3009L14.3085 62.3296L14.3442 62.3574L16.8 59.2ZM8.2 49L11.7023 47.0677L11.7023 47.0677L8.2 49ZM8.8 20.8L5.35226 18.7719L5.34281 18.788L5.33351 18.8041L8.8 20.8ZM19.2 9.39999L21.5345 12.6481L21.5675 12.6244L21.6 12.6L19.2 9.39999ZM33.4 2.4L34.4858 6.2498L34.5177 6.24081L34.5494 6.2313L33.4 2.4ZM65 2.4L63.8237 6.22311L63.8813 6.24084L63.9394 6.25682L65 2.4ZM79.4 9.19999L77.0655 12.4481L77.089 12.465L77.1128 12.4816L79.4 9.19999ZM89.8 20.6L86.3082 22.5513L86.3426 22.6129L86.3792 22.6732L89.8 20.6ZM90.4 49L86.9199 47.0279L86.9087 47.0477L86.8977 47.0677L90.4 49ZM81.8 59.2L84.2558 62.3574L84.2916 62.3296L84.3267 62.3009L81.8 59.2ZM70 66L68.4945 62.2941L58.4613 66.3701L68.7351 69.7947L70 66ZM84.2 74L81.6205 77.0572L81.6718 77.1004L81.7245 77.142L84.2 74ZM94.6 86.4L91.0625 88.267L91.0825 88.305L91.1034 88.3426L94.6 86.4ZM81.6 89L78.0741 90.8889L78.1148 90.965L78.1588 91.0392L81.6 89ZM73.2 79.6L70.8399 82.8296L70.8688 82.8507L70.898 82.8712L73.2 79.6ZM61.6 73.8L60.372 77.6068L60.3894 77.6125L60.4069 77.6179L61.6 73.8ZM32.2 75.6L33.8415 79.2477L33.8617 79.2386L33.8818 79.2292L32.2 75.6ZM19 86L15.8226 83.5702L15.8171 83.5774L15.8116 83.5846L19 86ZM17 114.2L13.5034 116.143L13.5304 116.191L13.5588 116.239L17 114.2ZM25.4 123.6L22.9612 126.77L23.0002 126.801L23.0399 126.83L25.4 123.6ZM36.8 129.4L35.572 133.207L35.5894 133.212L35.6069 133.218L36.8 129.4ZM66.2 127.8L67.8415 131.448L67.8617 131.439L67.8818 131.429L66.2 127.8ZM79.6 117.2L76.4226 114.77L76.4226 114.77L79.6 117.2ZM23.2 50L20.1091 52.539L20.1586 52.5992L20.2104 52.6575L23.2 50ZM35.2 58.2L33.7502 61.928L33.7502 61.928L35.2 58.2ZM63.4 58.2L64.8856 61.9139L64.9121 61.9033L64.9385 61.8923L63.4 58.2ZM75.2 49.8L72.163 47.1968L72.155 47.2061L75.2 49.8ZM75.6 23.4L78.7009 20.8733L78.7009 20.8733L75.6 23.4ZM64 15.2L62.5144 18.9139L62.5323 18.921L62.5502 18.928L64 15.2ZM34.2 15.4L35.6856 19.1139L35.7121 19.1033L35.7385 19.0923L34.2 15.4ZM22.8 23.8L19.6547 21.3287L19.6486 21.3365L19.6426 21.3442L22.8 23.8ZM94.6 102.6C94.6 110.059 92.514 116.393 88.4167 121.778L94.7833 126.622C100.019 119.74 102.6 111.674 102.6 102.6H94.6ZM88.3833 121.822C84.291 127.359 78.7827 131.748 71.74 134.961L75.06 142.239C83.2173 138.518 89.8423 133.308 94.8167 126.578L88.3833 121.822ZM71.7694 134.947C64.8617 138.031 57.2239 139.6 48.8 139.6V147.6C58.2427 147.6 67.005 145.835 75.0306 142.253L71.7694 134.947ZM48.8 139.6C39.8689 139.6 32.1068 137.842 25.4147 134.435L21.7853 141.565C29.7599 145.624 38.7978 147.6 48.8 147.6V139.6ZM25.4656 134.462C18.6553 130.871 13.3716 126.226 9.5064 120.549L2.8936 125.051C7.56176 131.908 13.8781 137.396 21.7344 141.538L25.4656 134.462ZM9.53909 120.598C5.85043 115.005 4 108.775 4 101.8H-4C-4 110.291 -1.71709 118.062 2.86091 125.002L9.53909 120.598ZM4 101.8C4 96.4499 5.24026 91.7552 7.65512 87.6155L0.744885 83.5845C-2.44026 89.0448 -4 95.1501 -4 101.8H4ZM7.63814 87.6443C10.3332 83.1117 13.6101 79.3619 17.4626 76.3521L12.5374 70.0479C7.8566 73.7048 3.93344 78.2217 0.761857 83.5557L7.63814 87.6443ZM17.4154 76.3884C21.5137 73.2836 25.5861 71.1145 29.6313 69.8058L27.1687 62.1942C22.1472 63.8188 17.2863 66.4497 12.5846 70.0116L17.4154 76.3884ZM29.9469 62.3112C26.1443 60.7166 22.5825 58.63 19.2558 56.0426L14.3442 62.3574C18.2175 65.37 22.389 67.8167 26.8531 69.6888L29.9469 62.3112ZM19.3267 56.0991C16.1029 53.4723 13.5756 50.4631 11.7023 47.0677L4.69769 50.9323C7.09104 55.2703 10.2971 59.061 14.2733 62.3009L19.3267 56.0991ZM11.7023 47.0677C9.91408 43.8265 9 40.2305 9 36.2H1C1 41.5028 2.21925 46.4401 4.69769 50.9323L11.7023 47.0677ZM9 36.2C9 30.9236 10.1339 26.4999 12.2665 22.7959L5.33351 18.8041C2.39945 23.9001 1 29.7431 1 36.2H9ZM12.2477 22.8281C14.6325 18.7739 17.7202 15.3896 21.5345 12.6481L16.8655 6.15193C12.1465 9.54372 8.30081 13.7594 5.35226 18.7719L12.2477 22.8281ZM21.6 12.6C25.4672 9.69962 29.7539 7.58446 34.4858 6.2498L32.3142 -1.4498C26.6461 0.148867 21.4662 2.70036 16.8 6.19999L21.6 12.6ZM34.5494 6.2313C39.5263 4.73821 44.4728 3.99999 49.4 3.99999V-4.00001C43.6605 -4.00001 37.9403 -3.13823 32.2506 -1.43131L34.5494 6.2313ZM49.4 3.99999C54.1831 3.99999 58.987 4.73492 63.8237 6.22311L66.1764 -1.42312C60.613 -3.13493 55.0169 -4.00001 49.4 -4.00001V3.99999ZM63.9394 6.25682C68.8397 7.6044 73.204 9.67261 77.0655 12.4481L81.7345 5.95193C77.0627 2.59404 71.827 0.128919 66.0606 -1.45682L63.9394 6.25682ZM77.1128 12.4816C81.0325 15.2135 84.0803 18.5645 86.3082 22.5513L93.2918 18.6487C90.453 13.5688 86.5675 9.31984 81.6872 5.9184L77.1128 12.4816ZM86.3792 22.6732C88.6162 26.3642 89.8 30.7597 89.8 36H97.8C97.8 29.507 96.3172 23.6358 93.2208 18.5268L86.3792 22.6732ZM89.8 36C89.8 39.9863 88.8405 43.6387 86.9199 47.0279L93.8801 50.972C96.4929 46.3613 97.8 41.347 97.8 36H89.8ZM86.8977 47.0677C85.0244 50.4631 82.4971 53.4723 79.2733 56.0991L84.3267 62.3009C88.3029 59.061 91.509 55.2703 93.9023 50.9323L86.8977 47.0677ZM79.3442 56.0426C76.0372 58.6148 72.4241 60.6977 68.4945 62.2941L71.5055 69.7059C76.1092 67.8356 80.3629 65.3852 84.2558 62.3574L79.3442 56.0426ZM68.7351 69.7947C73.4451 71.3647 77.734 73.7779 81.6205 77.0572L86.7795 70.9428C82.1327 67.0221 76.9549 64.1019 71.2649 62.2053L68.7351 69.7947ZM81.7245 77.142C85.6997 80.2739 88.7986 83.9776 91.0625 88.267L98.1375 84.533C95.3347 79.2224 91.5003 74.6594 86.6755 70.858L81.7245 77.142ZM91.1034 88.3426C93.4099 92.4943 94.6 97.2151 94.6 102.6H102.6C102.6 95.9849 101.123 89.9057 98.0966 84.4574L91.1034 88.3426ZM88.8 101.6C88.8 96.1898 87.5914 91.2643 85.0412 86.9608L78.1588 91.0392C79.8753 93.9357 80.8 97.4102 80.8 101.6H88.8ZM85.1259 87.1111C82.8196 82.8059 79.5915 79.2066 75.502 76.3288L70.898 82.8712C74.0086 85.0601 76.3804 87.7274 78.0741 90.8889L85.1259 87.1111ZM75.5601 76.3704C71.7249 73.5678 67.461 71.4408 62.7931 69.9821L60.4069 77.6179C64.2723 78.8259 67.7418 80.5655 70.8399 82.8296L75.5601 76.3704ZM62.828 69.9932C58.3051 68.5342 53.6911 67.8 49 67.8V75.8C52.8423 75.8 56.6282 76.3992 60.372 77.6068L62.828 69.9932ZM49 67.8C42.6563 67.8 36.4844 69.2059 30.5182 71.9708L33.8818 79.2292C38.8489 76.9274 43.8771 75.8 49 75.8V67.8ZM30.5585 71.9523C24.6358 74.6176 19.7026 78.4963 15.8226 83.5702L22.1774 88.4298C25.2308 84.437 29.0976 81.3824 33.8415 79.2477L30.5585 71.9523ZM15.8116 83.5846C11.8932 88.7569 10 94.8967 10 101.8H18C18 96.4367 19.4401 92.0431 22.1884 88.4154L15.8116 83.5846ZM10 101.8C10 107.055 11.1313 111.873 13.5034 116.143L20.4966 112.257C18.8687 109.327 18 105.879 18 101.8H10ZM13.5588 116.239C15.963 120.296 19.11 123.808 22.9612 126.77L27.8388 120.43C24.7566 118.059 22.3037 115.304 20.4412 112.161L13.5588 116.239ZM23.0399 126.83C26.8548 129.617 31.0377 131.744 35.572 133.207L38.028 125.593C34.2956 124.389 30.8786 122.649 27.7601 120.37L23.0399 126.83ZM35.6069 133.218C40.2413 134.666 44.9098 135.4 49.6 135.4V127.4C45.7569 127.4 41.8921 126.801 37.9931 125.582L35.6069 133.218ZM49.6 135.4C55.9108 135.4 62.0027 134.075 67.8415 131.448L64.5585 124.152C59.7306 126.325 54.7558 127.4 49.6 127.4V135.4ZM67.8818 131.429C73.9031 128.639 78.8948 124.707 82.7774 119.63L76.4226 114.77C73.3719 118.76 69.4303 121.894 64.5182 124.171L67.8818 131.429ZM82.7774 119.63C86.7935 114.378 88.8 108.318 88.8 101.6H80.8C80.8 106.615 79.3399 110.955 76.4226 114.77L82.7774 119.63ZM14.6 36.8C14.6 42.7439 16.4244 48.0532 20.1091 52.539L26.2909 47.461C23.8423 44.4801 22.6 40.9894 22.6 36.8H14.6ZM20.2104 52.6575C23.8605 56.7638 28.4013 59.8479 33.7502 61.928L36.6498 54.472C32.3987 52.8188 28.9395 50.4362 26.1896 47.3425L20.2104 52.6575ZM33.7502 61.928C38.9501 63.9502 44.1079 65 49.2 65V57C45.2254 57 41.0499 56.1831 36.6498 54.472L33.7502 61.928ZM49.2 65C54.5327 65 59.769 63.9605 64.8856 61.9139L61.9144 54.4861C57.6976 56.1728 53.4673 57 49.2 57V65ZM64.9385 61.8923C70.2612 59.6745 74.7302 56.5199 78.245 52.3939L72.155 47.2061C69.5365 50.2801 66.1388 52.7255 61.8615 54.5077L64.9385 61.8923ZM78.237 52.4032C82.0962 47.9008 84 42.4952 84 36.4H76C76 40.7048 74.7038 44.2325 72.163 47.1968L78.237 52.4032ZM84 36.4C84 30.5024 82.27 25.2535 78.7009 20.8733L72.4991 25.9267C74.7967 28.7465 76 32.1643 76 36.4H84ZM78.7009 20.8733C75.2841 16.6799 70.8228 13.5615 65.4498 11.472L62.5502 18.928C66.7772 20.5718 70.0492 22.9201 72.4991 25.9267L78.7009 20.8733ZM65.4856 11.4861C60.318 9.41909 54.8107 8.4 49 8.4V16.4C53.8559 16.4 58.3486 17.2476 62.5144 18.9139L65.4856 11.4861ZM49 8.4C43.3912 8.4 37.9359 9.51004 32.6615 11.7077L35.7385 19.0923C40.0641 17.29 44.4755 16.4 49 16.4V8.4ZM32.7144 11.6861C27.4347 13.798 23.0482 17.0098 19.6547 21.3287L25.9453 26.2713C28.4185 23.1235 31.632 20.7353 35.6856 19.1139L32.7144 11.6861ZM19.6426 21.3442C16.2357 25.7245 14.6 30.9482 14.6 36.8H22.6C22.6 32.5185 23.7643 29.0755 25.9574 26.2558L19.6426 21.3442ZM147.755 139.8L146.088 143.436L146.12 143.451L146.151 143.465L147.755 139.8ZM131.155 128L128.213 130.71L128.231 130.729L128.249 130.749L131.155 128ZM120.155 110.6L116.425 112.046L116.438 112.079L116.451 112.112L120.155 110.6ZM122.955 62.8L119.461 60.8526L119.449 60.8746L119.437 60.8967L122.955 62.8ZM141.555 43.4L143.638 46.8146L143.659 46.8018L143.68 46.7888L141.555 43.4ZM195.155 43.4L192.977 46.7551L192.99 46.7637L193.003 46.7722L195.155 43.4ZM213.355 63L209.837 64.9033L209.843 64.9155L209.85 64.9277L213.355 63ZM219.755 94.8V98.8H222.878L223.635 95.7701L219.755 94.8ZM130.555 94.8V90.8H126.182L126.571 95.1557L130.555 94.8ZM136.755 114.8L133.311 116.835L133.338 116.881L133.367 116.927L136.755 114.8ZM150.555 128.6L148.449 132.001L148.496 132.03L148.544 132.058L150.555 128.6ZM188.355 128.4L186.386 124.918L186.37 124.927L186.354 124.937L188.355 128.4ZM201.155 114.8L202.202 110.939L198.847 110.03L197.478 113.224L201.155 114.8ZM212.955 118L216.626 119.588L218.459 115.348L214.002 114.139L212.955 118ZM203.155 131.4L200.464 128.44L200.464 128.44L203.155 131.4ZM187.555 140.8L188.922 144.559L188.945 144.551L188.968 144.542L187.555 140.8ZM130.155 85L126.165 84.715L125.859 89H130.155V85ZM207.155 85V89H211.445L211.145 84.72L207.155 85ZM200.955 65L197.532 67.0697L197.549 67.0985L197.567 67.1271L200.955 65ZM187.155 51.6L185.109 55.0372L185.157 55.0656L185.205 55.0928L187.155 51.6ZM149.955 51.6L151.939 55.073L151.97 55.0553L152.001 55.0372L149.955 51.6ZM136.155 65.2L132.745 63.1079L132.739 63.1191L132.732 63.1303L136.155 65.2ZM168.555 140C161.601 140 155.218 138.699 149.358 136.135L146.151 143.465C153.091 146.501 160.575 148 168.555 148V140ZM149.421 136.164C143.47 133.436 138.362 129.798 134.061 125.251L128.249 130.749C133.281 136.068 139.239 140.297 146.088 143.436L149.421 136.164ZM134.097 125.29C129.761 120.583 126.349 115.191 123.858 109.088L116.451 112.112C119.294 119.076 123.215 125.284 128.213 130.71L134.097 125.29ZM123.884 109.154C121.541 103.111 120.355 96.6048 120.355 89.6H112.355C112.355 97.5286 113.702 105.022 116.425 112.046L123.884 109.154ZM120.355 89.6C120.355 80.4951 122.406 72.2211 126.473 64.7033L119.437 60.8967C114.704 69.6456 112.355 79.2382 112.355 89.6H120.355ZM126.449 64.7474C130.65 57.21 136.367 51.2514 143.638 46.8146L139.471 39.9854C131.009 45.1486 124.326 52.1233 119.461 60.8526L126.449 64.7474ZM143.68 46.7888C150.86 42.2856 159.046 40 168.355 40V32C157.663 32 147.982 34.6477 139.43 40.0112L143.68 46.7888ZM168.355 40C177.954 40 186.109 42.2969 192.977 46.7551L197.333 40.0449C189.001 34.6365 179.288 32 168.355 32V40ZM193.003 46.7722C200.159 51.3369 205.757 57.3627 209.837 64.9033L216.873 61.0967C212.152 52.3706 205.617 45.3297 197.306 40.0277L193.003 46.7722ZM209.85 64.9277C213.908 72.3064 215.955 80.4381 215.955 89.4H223.955C223.955 79.1619 221.601 69.6936 216.86 61.0723L209.85 64.9277ZM215.955 89.4C215.955 89.4021 215.955 89.4042 215.955 89.4062C215.955 89.4083 215.955 89.4104 215.955 89.4125C215.955 89.4146 215.955 89.4167 215.955 89.4187C215.955 89.4208 215.955 89.4229 215.955 89.425C215.955 89.4271 215.955 89.4292 215.955 89.4312C215.955 89.4333 215.955 89.4354 215.955 89.4375C215.955 89.4396 215.955 89.4417 215.955 89.4437C215.955 89.4458 215.955 89.4479 215.955 89.45C215.955 89.4521 215.955 89.4542 215.955 89.4562C215.955 89.4583 215.955 89.4604 215.955 89.4625C215.955 89.4646 215.955 89.4667 215.955 89.4687C215.955 89.4708 215.955 89.4729 215.955 89.475C215.955 89.4771 215.955 89.4792 215.955 89.4812C215.955 89.4833 215.955 89.4854 215.955 89.4875C215.955 89.4896 215.955 89.4917 215.955 89.4937C215.955 89.4958 215.955 89.4979 215.955 89.5C215.955 89.5021 215.955 89.5042 215.955 89.5062C215.955 89.5083 215.955 89.5104 215.955 89.5125C215.955 89.5146 215.955 89.5167 215.955 89.5187C215.955 89.5208 215.955 89.5229 215.955 89.525C215.955 89.5271 215.955 89.5292 215.955 89.5312C215.955 89.5333 215.955 89.5354 215.955 89.5375C215.955 89.5396 215.955 89.5417 215.955 89.5437C215.955 89.5458 215.955 89.5479 215.955 89.55C215.955 89.5521 215.955 89.5542 215.955 89.5562C215.955 89.5583 215.955 89.5604 215.955 89.5625C215.955 89.5646 215.955 89.5667 215.955 89.5687C215.955 89.5708 215.955 89.5729 215.955 89.575C215.955 89.5771 215.955 89.5792 215.955 89.5812C215.955 89.5833 215.955 89.5854 215.955 89.5875C215.955 89.5896 215.955 89.5917 215.955 89.5937C215.955 89.5958 215.955 89.5979 215.955 89.6C215.955 89.6021 215.955 89.6042 215.955 89.6062C215.955 89.6083 215.955 89.6104 215.955 89.6125C215.955 89.6146 215.955 89.6167 215.955 89.6187C215.955 89.6208 215.955 89.6229 215.955 89.625C215.955 89.6271 215.955 89.6292 215.955 89.6312C215.955 89.6333 215.955 89.6354 215.955 89.6375C215.955 89.6396 215.955 89.6417 215.955 89.6437C215.955 89.6458 215.955 89.6479 215.955 89.65C215.955 89.6521 215.955 89.6542 215.955 89.6562C215.955 89.6583 215.955 89.6604 215.955 89.6625C215.955 89.6646 215.955 89.6667 215.955 89.6687C215.955 89.6708 215.955 89.6729 215.955 89.675C215.955 89.6771 215.955 89.6792 215.955 89.6812C215.955 89.6833 215.955 89.6854 215.955 89.6875C215.955 89.6896 215.955 89.6917 215.955 89.6937C215.955 89.6958 215.955 89.6979 215.955 89.7C215.955 89.7021 215.955 89.7042 215.955 89.7062C215.955 89.7083 215.955 89.7104 215.955 89.7125C215.955 89.7146 215.955 89.7167 215.955 89.7187C215.955 89.7208 215.955 89.7229 215.955 89.725C215.955 89.7271 215.955 89.7292 215.955 89.7312C215.955 89.7333 215.955 89.7354 215.955 89.7375C215.955 89.7396 215.955 89.7417 215.955 89.7437C215.955 89.7458 215.955 89.7479 215.955 89.75C215.955 89.7521 215.955 89.7542 215.955 89.7562C215.955 89.7583 215.955 89.7604 215.955 89.7625C215.955 89.7646 215.955 89.7667 215.955 89.7687C215.955 89.7708 215.955 89.7729 215.955 89.775C215.955 89.7771 215.955 89.7792 215.955 89.7812C215.955 89.7833 215.955 89.7854 215.955 89.7875C215.955 89.7896 215.955 89.7917 215.955 89.7937C215.955 89.7958 215.955 89.7979 215.955 89.8C215.955 89.8021 215.955 89.8042 215.955 89.8062C215.955 89.8083 215.955 89.8104 215.955 89.8125C215.955 89.8146 215.955 89.8167 215.955 89.8187C215.955 89.8208 215.955 89.8229 215.955 89.825C215.955 89.8271 215.955 89.8292 215.955 89.8312C215.955 89.8333 215.955 89.8354 215.955 89.8375C215.955 89.8396 215.955 89.8417 215.955 89.8437C215.955 89.8458 215.955 89.8479 215.955 89.85C215.955 89.8521 215.955 89.8542 215.955 89.8562C215.955 89.8583 215.955 89.8604 215.955 89.8625C215.955 89.8646 215.955 89.8667 215.955 89.8687C215.955 89.8708 215.955 89.8729 215.955 89.875C215.955 89.8771 215.955 89.8792 215.955 89.8812C215.955 89.8833 215.955 89.8854 215.955 89.8875C215.955 89.8896 215.955 89.8917 215.955 89.8937C215.955 89.8958 215.955 89.8979 215.955 89.9C215.955 89.9021 215.955 89.9042 215.955 89.9062C215.955 89.9083 215.955 89.9104 215.955 89.9125C215.955 89.9146 215.955 89.9167 215.955 89.9187C215.955 89.9208 215.955 89.9229 215.955 89.925C215.955 89.9271 215.955 89.9292 215.955 89.9312C215.955 89.9333 215.955 89.9354 215.955 89.9375C215.955 89.9396 215.955 89.9417 215.955 89.9437C215.955 89.9458 215.955 89.9479 215.955 89.95C215.955 89.9521 215.955 89.9542 215.955 89.9562C215.955 89.9583 215.955 89.9604 215.955 89.9625C215.955 89.9646 215.955 89.9667 215.955 89.9687C215.955 89.9708 215.955 89.9729 215.955 89.975C215.955 89.9771 215.955 89.9792 215.955 89.9812C215.955 89.9833 215.955 89.9854 215.955 89.9875C215.955 89.9896 215.955 89.9917 215.955 89.9937C215.955 89.9958 215.955 89.9979 215.955 90C215.955 90.0021 215.955 90.0042 215.955 90.0062C215.955 90.0083 215.955 90.0104 215.955 90.0125C215.955 90.0146 215.955 90.0167 215.955 90.0187C215.955 90.0208 215.955 90.0229 215.955 90.025C215.955 90.0271 215.955 90.0292 215.955 90.0312C215.955 90.0333 215.955 90.0354 215.955 90.0375C215.955 90.0396 215.955 90.0417 215.955 90.0437C215.955 90.0458 215.955 90.0479 215.955 90.05C215.955 90.0521 215.955 90.0542 215.955 90.0562C215.955 90.0583 215.955 90.0604 215.955 90.0625C215.955 90.0646 215.955 90.0667 215.955 90.0687C215.955 90.0708 215.955 90.0729 215.955 90.075C215.955 90.0771 215.955 90.0792 215.955 90.0812C215.955 90.0833 215.955 90.0854 215.955 90.0875C215.955 90.0896 215.955 90.0917 215.955 90.0937C215.955 90.0958 215.955 90.0979 215.955 90.1C215.955 90.1021 215.955 90.1042 215.955 90.1062C215.955 90.1083 215.955 90.1104 215.955 90.1125C215.955 90.1146 215.955 90.1167 215.955 90.1187C215.955 90.1208 215.955 90.1229 215.955 90.125C215.955 90.1271 215.955 90.1292 215.955 90.1312C215.955 90.1333 215.955 90.1354 215.955 90.1375C215.955 90.1396 215.955 90.1417 215.955 90.1437C215.955 90.1458 215.955 90.1479 215.955 90.15C215.955 90.1521 215.955 90.1542 215.955 90.1562C215.955 90.1583 215.955 90.1604 215.955 90.1625C215.955 90.1646 215.955 90.1667 215.955 90.1687C215.955 90.1708 215.955 90.1729 215.955 90.175C215.955 90.1771 215.955 90.1792 215.955 90.1812C215.955 90.1833 215.955 90.1854 215.955 90.1875C215.955 90.1896 215.955 90.1917 215.955 90.1937C215.955 90.1958 215.955 90.1979 215.955 90.2C215.955 90.2021 215.955 90.2042 215.955 90.2062C215.955 90.2083 215.955 90.2104 215.955 90.2125C215.955 90.2146 215.955 90.2167 215.955 90.2187C215.955 90.2208 215.955 90.2229 215.955 90.225C215.955 90.2271 215.955 90.2292 215.955 90.2312C215.955 90.2333 215.955 90.2354 215.955 90.2375C215.955 90.2396 215.955 90.2417 215.955 90.2437C215.955 90.2458 215.955 90.2479 215.955 90.25C215.955 90.2521 215.955 90.2542 215.955 90.2562C215.955 90.2583 215.955 90.2604 215.955 90.2625C215.955 90.2646 215.955 90.2667 215.955 90.2687C215.955 90.2708 215.955 90.2729 215.955 90.275C215.955 90.2771 215.955 90.2792 215.955 90.2812C215.955 90.2833 215.955 90.2854 215.955 90.2875C215.955 90.2896 215.955 90.2917 215.955 90.2937C215.955 90.2958 215.955 90.2979 215.955 90.3C215.955 90.3021 215.955 90.3042 215.955 90.3062C215.955 90.3083 215.955 90.3104 215.955 90.3125C215.955 90.3146 215.955 90.3167 215.955 90.3187C215.955 90.3208 215.955 90.3229 215.955 90.325C215.955 90.3271 215.955 90.3292 215.955 90.3312C215.955 90.3333 215.955 90.3354 215.955 90.3375C215.955 90.3396 215.955 90.3417 215.955 90.3437C215.955 90.3458 215.955 90.3479 215.955 90.35C215.955 90.3521 215.955 90.3542 215.955 90.3562C215.955 90.3583 215.955 90.3604 215.955 90.3625C215.955 90.3646 215.955 90.3667 215.955 90.3687C215.955 90.3708 215.955 90.3729 215.955 90.375C215.955 90.3771 215.955 90.3792 215.955 90.3812C215.955 90.3833 215.955 90.3854 215.955 90.3875C215.955 90.3896 215.955 90.3917 215.955 90.3937C215.955 90.3958 215.955 90.3979 215.955 90.4C215.955 90.4021 215.955 90.4042 215.955 90.4062C215.955 90.4083 215.955 90.4104 215.955 90.4125C215.955 90.4146 215.955 90.4167 215.955 90.4187C215.955 90.4208 215.955 90.4229 215.955 90.425C215.955 90.4271 215.955 90.4292 215.955 90.4312C215.955 90.4333 215.955 90.4354 215.955 90.4375C215.955 90.4396 215.955 90.4417 215.955 90.4437C215.955 90.4458 215.955 90.4479 215.955 90.45C215.955 90.4521 215.955 90.4542 215.955 90.4562C215.955 90.4583 215.955 90.4604 215.955 90.4625C215.955 90.4646 215.955 90.4667 215.955 90.4687C215.955 90.4708 215.955 90.4729 215.955 90.475C215.955 90.4771 215.955 90.4792 215.955 90.4812C215.955 90.4833 215.955 90.4854 215.955 90.4875C215.955 90.4896 215.955 90.4917 215.955 90.4937C215.955 90.4958 215.955 90.4979 215.955 90.5C215.955 90.5021 215.955 90.5042 215.955 90.5062C215.955 90.5083 215.955 90.5104 215.955 90.5125C215.955 90.5146 215.955 90.5167 215.955 90.5187C215.955 90.5208 215.955 90.5229 215.955 90.525C215.955 90.5271 215.955 90.5292 215.955 90.5312C215.955 90.5333 215.955 90.5354 215.955 90.5375C215.955 90.5396 215.955 90.5417 215.955 90.5437C215.955 90.5458 215.955 90.5479 215.955 90.55C215.955 90.5521 215.955 90.5542 215.955 90.5562C215.955 90.5583 215.955 90.5604 215.955 90.5625C215.955 90.5646 215.955 90.5667 215.955 90.5687C215.955 90.5708 215.955 90.5729 215.955 90.575C215.955 90.5771 215.955 90.5792 215.955 90.5812C215.955 90.5833 215.955 90.5854 215.955 90.5875C215.955 90.5896 215.955 90.5917 215.955 90.5937C215.955 90.5958 215.955 90.5979 215.955 90.6C215.955 90.6021 215.955 90.6042 215.955 90.6062C215.955 90.6083 215.955 90.6104 215.955 90.6125C215.955 90.6146 215.955 90.6167 215.955 90.6187C215.955 90.6208 215.955 90.6229 215.955 90.625C215.955 90.6271 215.955 90.6292 215.955 90.6312C215.955 90.6333 215.955 90.6354 215.955 90.6375C215.955 90.6396 215.955 90.6417 215.955 90.6437C215.955 90.6458 215.955 90.6479 215.955 90.65C215.955 90.6521 215.955 90.6542 215.955 90.6562C215.955 90.6583 215.955 90.6604 215.955 90.6625C215.955 90.6646 215.955 90.6667 215.955 90.6687C215.955 90.6708 215.955 90.6729 215.955 90.675C215.955 90.6771 215.955 90.6792 215.955 90.6812C215.955 90.6833 215.955 90.6854 215.955 90.6875C215.955 90.6896 215.955 90.6917 215.955 90.6937C215.955 90.6958 215.955 90.6979 215.955 90.7C215.955 90.7021 215.955 90.7042 215.955 90.7062C215.955 90.7083 215.955 90.7104 215.955 90.7125C215.955 90.7146 215.955 90.7167 215.955 90.7187C215.955 90.7208 215.955 90.7229 215.955 90.725C215.955 90.7271 215.955 90.7292 215.955 90.7312C215.955 90.7333 215.955 90.7354 215.955 90.7375C215.955 90.7396 215.955 90.7417 215.955 90.7437C215.955 90.7458 215.955 90.7479 215.955 90.75C215.955 90.7521 215.955 90.7542 215.955 90.7562C215.955 90.7583 215.955 90.7604 215.955 90.7625C215.955 90.7646 215.955 90.7667 215.955 90.7687C215.955 90.7708 215.955 90.7729 215.955 90.775C215.955 90.7771 215.955 90.7792 215.955 90.7812C215.955 90.7833 215.955 90.7854 215.955 90.7875C215.955 90.7896 215.955 90.7917 215.955 90.7937C215.955 90.7958 215.955 90.7979 215.955 90.8C215.955 90.8021 215.955 90.8042 215.955 90.8062C215.955 90.8083 215.955 90.8104 215.955 90.8125C215.955 90.8146 215.955 90.8167 215.955 90.8187C215.955 90.8208 215.955 90.8229 215.955 90.825C215.955 90.8271 215.955 90.8292 215.955 90.8312C215.955 90.8333 215.955 90.8354 215.955 90.8375C215.955 90.8396 215.955 90.8417 215.955 90.8437C215.955 90.8458 215.955 90.8479 215.955 90.85C215.955 90.8521 215.955 90.8542 215.955 90.8562C215.955 90.8583 215.955 90.8604 215.955 90.8625C215.955 90.8646 215.955 90.8667 215.955 90.8687C215.955 90.8708 215.955 90.8729 215.955 90.875C215.955 90.8771 215.955 90.8792 215.955 90.8812C215.955 90.8833 215.955 90.8854 215.955 90.8875C215.955 90.8896 215.955 90.8917 215.955 90.8937C215.955 90.8958 215.955 90.8979 215.955 90.9C215.955 90.9021 215.955 90.9042 215.955 90.9062C215.955 90.9083 215.955 90.9104 215.955 90.9125C215.955 90.9146 215.955 90.9167 215.955 90.9187C215.955 90.9208 215.955 90.9229 215.955 90.925C215.955 90.9271 215.955 90.9292 215.955 90.9312C215.955 90.9333 215.955 90.9354 215.955 90.9375C215.955 90.9396 215.955 90.9417 215.955 90.9437C215.955 90.9458 215.955 90.9479 215.955 90.95C215.955 90.9521 215.955 90.9542 215.955 90.9562C215.955 90.9583 215.955 90.9604 215.955 90.9625C215.955 90.9646 215.955 90.9667 215.955 90.9687C215.955 90.9708 215.955 90.9729 215.955 90.975C215.955 90.9771 215.955 90.9792 215.955 90.9812C215.955 90.9833 215.955 90.9854 215.955 90.9875C215.955 90.9896 215.955 90.9917 215.955 90.9937C215.955 90.9958 215.955 90.9979 215.955 91C215.955 91.0021 215.955 91.0042 215.955 91.0062C215.955 91.0083 215.955 91.0104 215.955 91.0125C215.955 91.0146 215.955 91.0167 215.955 91.0187C215.955 91.0208 215.955 91.0229 215.955 91.025C215.955 91.0271 215.955 91.0292 215.955 91.0312C215.955 91.0333 215.955 91.0354 215.955 91.0375C215.955 91.0396 215.955 91.0417 215.955 91.0437C215.955 91.0458 215.955 91.0479 215.955 91.05C215.955 91.0521 215.955 91.0542 215.955 91.0562C215.955 91.0583 215.955 91.0604 215.955 91.0625C215.955 91.0646 215.955 91.0667 215.955 91.0687C215.955 91.0708 215.955 91.0729 215.955 91.075C215.955 91.0771 215.955 91.0792 215.955 91.0812C215.955 91.0833 215.955 91.0854 215.955 91.0875C215.955 91.0896 215.955 91.0917 215.955 91.0937C215.955 91.0958 215.955 91.0979 215.955 91.1C215.955 91.1021 215.955 91.1042 215.955 91.1062C215.955 91.1083 215.955 91.1104 215.955 91.1125C215.955 91.1146 215.955 91.1167 215.955 91.1187C215.955 91.1208 215.955 91.1229 215.955 91.125C215.955 91.1271 215.955 91.1292 215.955 91.1312C215.955 91.1333 215.955 91.1354 215.955 91.1375C215.955 91.1396 215.955 91.1417 215.955 91.1437C215.955 91.1458 215.955 91.1479 215.955 91.15C215.955 91.1521 215.955 91.1542 215.955 91.1562C215.955 91.1583 215.955 91.1604 215.955 91.1625C215.955 91.1646 215.955 91.1667 215.955 91.1687C215.955 91.1708 215.955 91.1729 215.955 91.175C215.955 91.1771 215.955 91.1792 215.955 91.1812C215.955 91.1833 215.955 91.1854 215.955 91.1875C215.955 91.1896 215.955 91.1917 215.955 91.1937C215.955 91.1958 215.955 91.1979 215.955 91.2C215.955 91.2021 215.955 91.2042 215.955 91.2062C215.955 91.2083 215.955 91.2104 215.955 91.2125C215.955 91.2146 215.955 91.2167 215.955 91.2187C215.955 91.2208 215.955 91.2229 215.955 91.225C215.955 91.2271 215.955 91.2292 215.955 91.2312C215.955 91.2333 215.955 91.2354 215.955 91.2375C215.955 91.2396 215.955 91.2417 215.955 91.2437C215.955 91.2458 215.955 91.2479 215.955 91.25C215.955 91.2521 215.955 91.2542 215.955 91.2562C215.955 91.2583 215.955 91.2604 215.955 91.2625C215.955 91.2646 215.955 91.2667 215.955 91.2687C215.955 91.2708 215.955 91.2729 215.955 91.275C215.955 91.2771 215.955 91.2792 215.955 91.2812C215.955 91.2833 215.955 91.2854 215.955 91.2875C215.955 91.2896 215.955 91.2917 215.955 91.2937C215.955 91.2958 215.955 91.2979 215.955 91.3C215.955 91.3021 215.955 91.3042 215.955 91.3062C215.955 91.3083 215.955 91.3104 215.955 91.3125C215.955 91.3146 215.955 91.3167 215.955 91.3187C215.955 91.3208 215.955 91.3229 215.955 91.325C215.955 91.3271 215.955 91.3292 215.955 91.3312C215.955 91.3333 215.955 91.3354 215.955 91.3375C215.955 91.3396 215.955 91.3417 215.955 91.3437C215.955 91.3458 215.955 91.3479 215.955 91.35C215.955 91.3521 215.955 91.3542 215.955 91.3562C215.955 91.3583 215.955 91.3604 215.955 91.3625C215.955 91.3646 215.955 91.3667 215.955 91.3687C215.955 91.3708 215.955 91.3729 215.955 91.375C215.955 91.3771 215.955 91.3792 215.955 91.3812C215.955 91.3833 215.955 91.3854 215.955 91.3875C215.955 91.3896 215.955 91.3917 215.955 91.3937C215.955 91.3958 215.955 91.3979 215.955 91.4C215.955 91.4021 215.955 91.4042 215.955 91.4062C215.955 91.4083 215.955 91.4104 215.955 91.4125C215.955 91.4146 215.955 91.4167 215.955 91.4187C215.955 91.4208 215.955 91.4229 215.955 91.425C215.955 91.4271 215.955 91.4292 215.955 91.4312C215.955 91.4333 215.955 91.4354 215.955 91.4375C215.955 91.4396 215.955 91.4417 215.955 91.4437C215.955 91.4458 215.955 91.4479 215.955 91.45C215.955 91.4521 215.955 91.4542 215.955 91.4562C215.955 91.4583 215.955 91.4604 215.955 91.4625C215.955 91.4646 215.955 91.4667 215.955 91.4687C215.955 91.4708 215.955 91.4729 215.955 91.475C215.955 91.4771 215.955 91.4792 215.955 91.4812C215.955 91.4833 215.955 91.4854 215.955 91.4875C215.955 91.4896 215.955 91.4917 215.955 91.4937C215.955 91.4958 215.955 91.4979 215.955 91.5C215.955 91.5021 215.955 91.5042 215.955 91.5062C215.955 91.5083 215.955 91.5104 215.955 91.5125C215.955 91.5146 215.955 91.5167 215.955 91.5187C215.955 91.5208 215.955 91.5229 215.955 91.525C215.955 91.5271 215.955 91.5292 215.955 91.5312C215.955 91.5333 215.955 91.5354 215.955 91.5375C215.955 91.5396 215.955 91.5417 215.955 91.5437C215.955 91.5458 215.955 91.5479 215.955 91.55C215.955 91.5521 215.955 91.5542 215.955 91.5562C215.955 91.5583 215.955 91.5604 215.955 91.5625C215.955 91.5646 215.955 91.5667 215.955 91.5687C215.955 91.5708 215.955 91.5729 215.955 91.575C215.955 91.5771 215.955 91.5792 215.955 91.5812C215.955 91.5833 215.955 91.5854 215.955 91.5875C215.955 91.5896 215.955 91.5917 215.955 91.5937C215.955 91.5958 215.955 91.5979 215.955 91.6C215.955 91.6021 215.955 91.6042 215.955 91.6062C215.955 91.6083 215.955 91.6104 215.955 91.6125C215.955 91.6146 215.955 91.6167 215.955 91.6187C215.955 91.6208 215.955 91.6229 215.955 91.625C215.955 91.6271 215.955 91.6292 215.955 91.6312C215.955 91.6333 215.955 91.6354 215.955 91.6375C215.955 91.6396 215.955 91.6417 215.955 91.6437C215.955 91.6458 215.955 91.6479 215.955 91.65C215.955 91.6521 215.955 91.6542 215.955 91.6562C215.955 91.6583 215.955 91.6604 215.955 91.6625C215.955 91.6646 215.955 91.6667 215.955 91.6687C215.955 91.6708 215.955 91.6729 215.955 91.675C215.955 91.6771 215.955 91.6792 215.955 91.6812C215.955 91.6833 215.955 91.6854 215.955 91.6875C215.955 91.6896 215.955 91.6917 215.955 91.6937C215.955 91.6958 215.955 91.6979 215.955 91.7C215.955 91.7021 215.955 91.7042 215.955 91.7062C215.955 91.7083 215.955 91.7104 215.955 91.7125C215.955 91.7146 215.955 91.7167 215.955 91.7187C215.955 91.7208 215.955 91.7229 215.955 91.725C215.955 91.7271 215.955 91.7292 215.955 91.7312C215.955 91.7333 215.955 91.7354 215.955 91.7375C215.955 91.7396 215.955 91.7417 215.955 91.7437C215.955 91.7458 215.955 91.7479 215.955 91.75C215.955 91.7521 215.955 91.7542 215.955 91.7562C215.955 91.7583 215.955 91.7604 215.955 91.7625C215.955 91.7646 215.955 91.7667 215.955 91.7687C215.955 91.7708 215.955 91.7729 215.955 91.775C215.955 91.7771 215.955 91.7792 215.955 91.7812C215.955 91.7833 215.955 91.7854 215.955 91.7875C215.955 91.7896 215.955 91.7917 215.955 91.7937C215.955 91.7958 215.955 91.7979 215.955 91.8C215.955 91.8021 215.955 91.8042 215.955 91.8062C215.955 91.8083 215.955 91.8104 215.955 91.8125C215.955 91.8146 215.955 91.8167 215.955 91.8187C215.955 91.8208 215.955 91.8229 215.955 91.825C215.955 91.8271 215.955 91.8292 215.955 91.8312C215.955 91.8333 215.955 91.8354 215.955 91.8375C215.955 91.8396 215.955 91.8417 215.955 91.8437C215.955 91.8458 215.955 91.8479 215.955 91.85C215.955 91.8521 215.955 91.8542 215.955 91.8562C215.955 91.8583 215.955 91.8604 215.955 91.8625C215.955 91.8646 215.955 91.8667 215.955 91.8687C215.955 91.8708 215.955 91.8729 215.955 91.875C215.955 91.8771 215.955 91.8792 215.955 91.8812C215.955 91.8833 215.955 91.8854 215.955 91.8875C215.955 91.8896 215.955 91.8917 215.955 91.8937C215.955 91.8958 215.955 91.8979 215.955 91.9C215.955 91.9021 215.955 91.9042 215.955 91.9062C215.955 91.9083 215.955 91.9104 215.955 91.9125C215.955 91.9146 215.955 91.9167 215.955 91.9187C215.955 91.9208 215.955 91.9229 215.955 91.925C215.955 91.9271 215.955 91.9292 215.955 91.9312C215.955 91.9333 215.955 91.9354 215.955 91.9375C215.955 91.9396 215.955 91.9417 215.955 91.9437C215.955 91.9458 215.955 91.9479 215.955 91.95C215.955 91.9521 215.955 91.9542 215.955 91.9562C215.955 91.9583 215.955 91.9604 215.955 91.9625C215.955 91.9646 215.955 91.9667 215.955 91.9687C215.955 91.9708 215.955 91.9729 215.955 91.975C215.955 91.9771 215.955 91.9792 215.955 91.9812C215.955 91.9833 215.955 91.9854 215.955 91.9875C215.955 91.9896 215.955 91.9917 215.955 91.9937C215.955 91.9958 215.955 91.9979 215.955 92C215.955 92.0021 215.955 92.0042 215.955 92.0062C215.955 92.0083 215.955 92.0104 215.955 92.0125C215.955 92.0146 215.955 92.0167 215.955 92.0187C215.955 92.0208 215.955 92.0229 215.955 92.025C215.955 92.0271 215.955 92.0292 215.955 92.0312C215.955 92.0333 215.955 92.0354 215.955 92.0375C215.955 92.0396 215.955 92.0417 215.955 92.0437C215.955 92.0458 215.955 92.0479 215.955 92.05C215.955 92.0521 215.955 92.0542 215.955 92.0562C215.955 92.0583 215.955 92.0604 215.955 92.0625C215.955 92.0646 215.955 92.0667 215.955 92.0687C215.955 92.0708 215.955 92.0729 215.955 92.075C215.955 92.0771 215.955 92.0792 215.955 92.0812C215.955 92.0833 215.955 92.0854 215.955 92.0875C215.955 92.0896 215.955 92.0917 215.955 92.0937C215.955 92.0958 215.955 92.0979 215.955 92.1C215.955 92.1021 215.955 92.1042 215.955 92.1062C215.955 92.1083 215.955 92.1104 215.955 92.1125C215.955 92.1146 215.955 92.1167 215.955 92.1187C215.955 92.1208 215.955 92.1229 215.955 92.125C215.955 92.1271 215.955 92.1292 215.955 92.1312C215.955 92.1333 215.955 92.1354 215.955 92.1375C215.955 92.1396 215.955 92.1417 215.955 92.1437C215.955 92.1458 215.955 92.1479 215.955 92.15C215.955 92.1521 215.955 92.1542 215.955 92.1562C215.955 92.1583 215.955 92.1604 215.955 92.1625C215.955 92.1646 215.955 92.1667 215.955 92.1687C215.955 92.1708 215.955 92.1729 215.955 92.175C215.955 92.1771 215.955 92.1792 215.955 92.1812C215.955 92.1833 215.955 92.1854 215.955 92.1875C215.955 92.1896 215.955 92.1917 215.955 92.1937C215.955 92.1958 215.955 92.1979 215.955 92.2C215.955 92.2021 215.955 92.2042 215.955 92.2062C215.955 92.2083 215.955 92.2104 215.955 92.2125C215.955 92.2146 215.955 92.2167 215.955 92.2187C215.955 92.2208 215.955 92.2229 215.955 92.225C215.955 92.2271 215.955 92.2292 215.955 92.2312C215.955 92.2333 215.955 92.2354 215.955 92.2375C215.955 92.2396 215.955 92.2417 215.955 92.2437C215.955 92.2458 215.955 92.2479 215.955 92.25C215.955 92.2521 215.955 92.2542 215.955 92.2562C215.955 92.2583 215.955 92.2604 215.955 92.2625C215.955 92.2646 215.955 92.2667 215.955 92.2687C215.955 92.2708 215.955 92.2729 215.955 92.275C215.955 92.2771 215.955 92.2792 215.955 92.2812C215.955 92.2833 215.955 92.2854 215.955 92.2875C215.955 92.2896 215.955 92.2917 215.955 92.2937C215.955 92.2958 215.955 92.2979 215.955 92.3C215.955 92.3021 215.955 92.3042 215.955 92.3062C215.955 92.3083 215.955 92.3104 215.955 92.3125C215.955 92.3146 215.955 92.3167 215.955 92.3187C215.955 92.3208 215.955 92.3229 215.955 92.325C215.955 92.3271 215.955 92.3292 215.955 92.3312C215.955 92.3333 215.955 92.3354 215.955 92.3375C215.955 92.3396 215.955 92.3417 215.955 92.3437C215.955 92.3458 215.955 92.3479 215.955 92.35C215.955 92.3521 215.955 92.3542 215.955 92.3562C215.955 92.3583 215.955 92.3604 215.955 92.3625C215.955 92.3646 215.955 92.3667 215.955 92.3687C215.955 92.3708 215.955 92.3729 215.955 92.375C215.955 92.3771 215.955 92.3792 215.955 92.3812C215.955 92.3833 215.955 92.3854 215.955 92.3875C215.955 92.3896 215.955 92.3917 215.955 92.3937C215.955 92.3958 215.955 92.3979 215.955 92.4C215.955 92.4021 215.955 92.4042 215.955 92.4062C215.955 92.4083 215.955 92.4104 215.955 92.4125C215.955 92.4146 215.955 92.4167 215.955 92.4187C215.955 92.4208 215.955 92.4229 215.955 92.425C215.955 92.4271 215.955 92.4292 215.955 92.4312C215.955 92.4333 215.955 92.4354 215.955 92.4375C215.955 92.4396 215.955 92.4417 215.955 92.4437C215.955 92.4458 215.955 92.4479 215.955 92.45C215.955 92.4521 215.955 92.4542 215.955 92.4562C215.955 92.4583 215.955 92.4604 215.955 92.4625C215.955 92.4646 215.955 92.4667 215.955 92.4687C215.955 92.4708 215.955 92.4729 215.955 92.475C215.955 92.4771 215.955 92.4792 215.955 92.4812C215.955 92.4833 215.955 92.4854 215.955 92.4875C215.955 92.4896 215.955 92.4917 215.955 92.4937C215.955 92.4958 215.955 92.4979 215.955 92.5C215.955 92.5021 215.955 92.5042 215.955 92.5062C215.955 92.5083 215.955 92.5104 215.955 92.5125C215.955 92.5146 215.955 92.5167 215.955 92.5187C215.955 92.5208 215.955 92.5229 215.955 92.525C215.955 92.5271 215.955 92.5292 215.955 92.5312C215.955 92.5333 215.955 92.5354 215.955 92.5375C215.955 92.5396 215.955 92.5417 215.955 92.5437C215.955 92.5458 215.955 92.5479 215.955 92.55C215.955 92.5521 215.955 92.5542 215.955 92.5562C215.955 92.5583 215.955 92.5604 215.955 92.5625C215.955 92.5646 215.955 92.5667 215.955 92.5687C215.955 92.5708 215.955 92.5729 215.955 92.575C215.955 92.5771 215.955 92.5792 215.955 92.5812C215.955 92.5833 215.955 92.5854 215.955 92.5875C215.955 92.5896 215.955 92.5917 215.955 92.5937C215.955 92.5958 215.955 92.5979 215.955 92.6H223.955C223.955 92.5979 223.955 92.5958 223.955 92.5937C223.955 92.5917 223.955 92.5896 223.955 92.5875C223.955 92.5854 223.955 92.5833 223.955 92.5812C223.955 92.5792 223.955 92.5771 223.955 92.575C223.955 92.5729 223.955 92.5708 223.955 92.5687C223.955 92.5667 223.955 92.5646 223.955 92.5625C223.955 92.5604 223.955 92.5583 223.955 92.5562C223.955 92.5542 223.955 92.5521 223.955 92.55C223.955 92.5479 223.955 92.5458 223.955 92.5437C223.955 92.5417 223.955 92.5396 223.955 92.5375C223.955 92.5354 223.955 92.5333 223.955 92.5312C223.955 92.5292 223.955 92.5271 223.955 92.525C223.955 92.5229 223.955 92.5208 223.955 92.5187C223.955 92.5167 223.955 92.5146 223.955 92.5125C223.955 92.5104 223.955 92.5083 223.955 92.5062C223.955 92.5042 223.955 92.5021 223.955 92.5C223.955 92.4979 223.955 92.4958 223.955 92.4937C223.955 92.4917 223.955 92.4896 223.955 92.4875C223.955 92.4854 223.955 92.4833 223.955 92.4812C223.955 92.4792 223.955 92.4771 223.955 92.475C223.955 92.4729 223.955 92.4708 223.955 92.4687C223.955 92.4667 223.955 92.4646 223.955 92.4625C223.955 92.4604 223.955 92.4583 223.955 92.4562C223.955 92.4542 223.955 92.4521 223.955 92.45C223.955 92.4479 223.955 92.4458 223.955 92.4437C223.955 92.4417 223.955 92.4396 223.955 92.4375C223.955 92.4354 223.955 92.4333 223.955 92.4312C223.955 92.4292 223.955 92.4271 223.955 92.425C223.955 92.4229 223.955 92.4208 223.955 92.4187C223.955 92.4167 223.955 92.4146 223.955 92.4125C223.955 92.4104 223.955 92.4083 223.955 92.4062C223.955 92.4042 223.955 92.4021 223.955 92.4C223.955 92.3979 223.955 92.3958 223.955 92.3937C223.955 92.3917 223.955 92.3896 223.955 92.3875C223.955 92.3854 223.955 92.3833 223.955 92.3812C223.955 92.3792 223.955 92.3771 223.955 92.375C223.955 92.3729 223.955 92.3708 223.955 92.3687C223.955 92.3667 223.955 92.3646 223.955 92.3625C223.955 92.3604 223.955 92.3583 223.955 92.3562C223.955 92.3542 223.955 92.3521 223.955 92.35C223.955 92.3479 223.955 92.3458 223.955 92.3437C223.955 92.3417 223.955 92.3396 223.955 92.3375C223.955 92.3354 223.955 92.3333 223.955 92.3312C223.955 92.3292 223.955 92.3271 223.955 92.325C223.955 92.3229 223.955 92.3208 223.955 92.3187C223.955 92.3167 223.955 92.3146 223.955 92.3125C223.955 92.3104 223.955 92.3083 223.955 92.3062C223.955 92.3042 223.955 92.3021 223.955 92.3C223.955 92.2979 223.955 92.2958 223.955 92.2937C223.955 92.2917 223.955 92.2896 223.955 92.2875C223.955 92.2854 223.955 92.2833 223.955 92.2812C223.955 92.2792 223.955 92.2771 223.955 92.275C223.955 92.2729 223.955 92.2708 223.955 92.2687C223.955 92.2667 223.955 92.2646 223.955 92.2625C223.955 92.2604 223.955 92.2583 223.955 92.2562C223.955 92.2542 223.955 92.2521 223.955 92.25C223.955 92.2479 223.955 92.2458 223.955 92.2437C223.955 92.2417 223.955 92.2396 223.955 92.2375C223.955 92.2354 223.955 92.2333 223.955 92.2312C223.955 92.2292 223.955 92.2271 223.955 92.225C223.955 92.2229 223.955 92.2208 223.955 92.2187C223.955 92.2167 223.955 92.2146 223.955 92.2125C223.955 92.2104 223.955 92.2083 223.955 92.2062C223.955 92.2042 223.955 92.2021 223.955 92.2C223.955 92.1979 223.955 92.1958 223.955 92.1937C223.955 92.1917 223.955 92.1896 223.955 92.1875C223.955 92.1854 223.955 92.1833 223.955 92.1812C223.955 92.1792 223.955 92.1771 223.955 92.175C223.955 92.1729 223.955 92.1708 223.955 92.1687C223.955 92.1667 223.955 92.1646 223.955 92.1625C223.955 92.1604 223.955 92.1583 223.955 92.1562C223.955 92.1542 223.955 92.1521 223.955 92.15C223.955 92.1479 223.955 92.1458 223.955 92.1437C223.955 92.1417 223.955 92.1396 223.955 92.1375C223.955 92.1354 223.955 92.1333 223.955 92.1312C223.955 92.1292 223.955 92.1271 223.955 92.125C223.955 92.1229 223.955 92.1208 223.955 92.1187C223.955 92.1167 223.955 92.1146 223.955 92.1125C223.955 92.1104 223.955 92.1083 223.955 92.1062C223.955 92.1042 223.955 92.1021 223.955 92.1C223.955 92.0979 223.955 92.0958 223.955 92.0937C223.955 92.0917 223.955 92.0896 223.955 92.0875C223.955 92.0854 223.955 92.0833 223.955 92.0812C223.955 92.0792 223.955 92.0771 223.955 92.075C223.955 92.0729 223.955 92.0708 223.955 92.0687C223.955 92.0667 223.955 92.0646 223.955 92.0625C223.955 92.0604 223.955 92.0583 223.955 92.0562C223.955 92.0542 223.955 92.0521 223.955 92.05C223.955 92.0479 223.955 92.0458 223.955 92.0437C223.955 92.0417 223.955 92.0396 223.955 92.0375C223.955 92.0354 223.955 92.0333 223.955 92.0312C223.955 92.0292 223.955 92.0271 223.955 92.025C223.955 92.0229 223.955 92.0208 223.955 92.0187C223.955 92.0167 223.955 92.0146 223.955 92.0125C223.955 92.0104 223.955 92.0083 223.955 92.0062C223.955 92.0042 223.955 92.0021 223.955 92C223.955 91.9979 223.955 91.9958 223.955 91.9937C223.955 91.9917 223.955 91.9896 223.955 91.9875C223.955 91.9854 223.955 91.9833 223.955 91.9812C223.955 91.9792 223.955 91.9771 223.955 91.975C223.955 91.9729 223.955 91.9708 223.955 91.9687C223.955 91.9667 223.955 91.9646 223.955 91.9625C223.955 91.9604 223.955 91.9583 223.955 91.9562C223.955 91.9542 223.955 91.9521 223.955 91.95C223.955 91.9479 223.955 91.9458 223.955 91.9437C223.955 91.9417 223.955 91.9396 223.955 91.9375C223.955 91.9354 223.955 91.9333 223.955 91.9312C223.955 91.9292 223.955 91.9271 223.955 91.925C223.955 91.9229 223.955 91.9208 223.955 91.9187C223.955 91.9167 223.955 91.9146 223.955 91.9125C223.955 91.9104 223.955 91.9083 223.955 91.9062C223.955 91.9042 223.955 91.9021 223.955 91.9C223.955 91.8979 223.955 91.8958 223.955 91.8937C223.955 91.8917 223.955 91.8896 223.955 91.8875C223.955 91.8854 223.955 91.8833 223.955 91.8812C223.955 91.8792 223.955 91.8771 223.955 91.875C223.955 91.8729 223.955 91.8708 223.955 91.8687C223.955 91.8667 223.955 91.8646 223.955 91.8625C223.955 91.8604 223.955 91.8583 223.955 91.8562C223.955 91.8542 223.955 91.8521 223.955 91.85C223.955 91.8479 223.955 91.8458 223.955 91.8437C223.955 91.8417 223.955 91.8396 223.955 91.8375C223.955 91.8354 223.955 91.8333 223.955 91.8312C223.955 91.8292 223.955 91.8271 223.955 91.825C223.955 91.8229 223.955 91.8208 223.955 91.8187C223.955 91.8167 223.955 91.8146 223.955 91.8125C223.955 91.8104 223.955 91.8083 223.955 91.8062C223.955 91.8042 223.955 91.8021 223.955 91.8C223.955 91.7979 223.955 91.7958 223.955 91.7937C223.955 91.7917 223.955 91.7896 223.955 91.7875C223.955 91.7854 223.955 91.7833 223.955 91.7812C223.955 91.7792 223.955 91.7771 223.955 91.775C223.955 91.7729 223.955 91.7708 223.955 91.7687C223.955 91.7667 223.955 91.7646 223.955 91.7625C223.955 91.7604 223.955 91.7583 223.955 91.7562C223.955 91.7542 223.955 91.7521 223.955 91.75C223.955 91.7479 223.955 91.7458 223.955 91.7437C223.955 91.7417 223.955 91.7396 223.955 91.7375C223.955 91.7354 223.955 91.7333 223.955 91.7312C223.955 91.7292 223.955 91.7271 223.955 91.725C223.955 91.7229 223.955 91.7208 223.955 91.7187C223.955 91.7167 223.955 91.7146 223.955 91.7125C223.955 91.7104 223.955 91.7083 223.955 91.7062C223.955 91.7042 223.955 91.7021 223.955 91.7C223.955 91.6979 223.955 91.6958 223.955 91.6937C223.955 91.6917 223.955 91.6896 223.955 91.6875C223.955 91.6854 223.955 91.6833 223.955 91.6812C223.955 91.6792 223.955 91.6771 223.955 91.675C223.955 91.6729 223.955 91.6708 223.955 91.6687C223.955 91.6667 223.955 91.6646 223.955 91.6625C223.955 91.6604 223.955 91.6583 223.955 91.6562C223.955 91.6542 223.955 91.6521 223.955 91.65C223.955 91.6479 223.955 91.6458 223.955 91.6437C223.955 91.6417 223.955 91.6396 223.955 91.6375C223.955 91.6354 223.955 91.6333 223.955 91.6312C223.955 91.6292 223.955 91.6271 223.955 91.625C223.955 91.6229 223.955 91.6208 223.955 91.6187C223.955 91.6167 223.955 91.6146 223.955 91.6125C223.955 91.6104 223.955 91.6083 223.955 91.6062C223.955 91.6042 223.955 91.6021 223.955 91.6C223.955 91.5979 223.955 91.5958 223.955 91.5937C223.955 91.5917 223.955 91.5896 223.955 91.5875C223.955 91.5854 223.955 91.5833 223.955 91.5812C223.955 91.5792 223.955 91.5771 223.955 91.575C223.955 91.5729 223.955 91.5708 223.955 91.5687C223.955 91.5667 223.955 91.5646 223.955 91.5625C223.955 91.5604 223.955 91.5583 223.955 91.5562C223.955 91.5542 223.955 91.5521 223.955 91.55C223.955 91.5479 223.955 91.5458 223.955 91.5437C223.955 91.5417 223.955 91.5396 223.955 91.5375C223.955 91.5354 223.955 91.5333 223.955 91.5312C223.955 91.5292 223.955 91.5271 223.955 91.525C223.955 91.5229 223.955 91.5208 223.955 91.5187C223.955 91.5167 223.955 91.5146 223.955 91.5125C223.955 91.5104 223.955 91.5083 223.955 91.5062C223.955 91.5042 223.955 91.5021 223.955 91.5C223.955 91.4979 223.955 91.4958 223.955 91.4937C223.955 91.4917 223.955 91.4896 223.955 91.4875C223.955 91.4854 223.955 91.4833 223.955 91.4812C223.955 91.4792 223.955 91.4771 223.955 91.475C223.955 91.4729 223.955 91.4708 223.955 91.4687C223.955 91.4667 223.955 91.4646 223.955 91.4625C223.955 91.4604 223.955 91.4583 223.955 91.4562C223.955 91.4542 223.955 91.4521 223.955 91.45C223.955 91.4479 223.955 91.4458 223.955 91.4437C223.955 91.4417 223.955 91.4396 223.955 91.4375C223.955 91.4354 223.955 91.4333 223.955 91.4312C223.955 91.4292 223.955 91.4271 223.955 91.425C223.955 91.4229 223.955 91.4208 223.955 91.4187C223.955 91.4167 223.955 91.4146 223.955 91.4125C223.955 91.4104 223.955 91.4083 223.955 91.4062C223.955 91.4042 223.955 91.4021 223.955 91.4C223.955 91.3979 223.955 91.3958 223.955 91.3937C223.955 91.3917 223.955 91.3896 223.955 91.3875C223.955 91.3854 223.955 91.3833 223.955 91.3812C223.955 91.3792 223.955 91.3771 223.955 91.375C223.955 91.3729 223.955 91.3708 223.955 91.3687C223.955 91.3667 223.955 91.3646 223.955 91.3625C223.955 91.3604 223.955 91.3583 223.955 91.3562C223.955 91.3542 223.955 91.3521 223.955 91.35C223.955 91.3479 223.955 91.3458 223.955 91.3437C223.955 91.3417 223.955 91.3396 223.955 91.3375C223.955 91.3354 223.955 91.3333 223.955 91.3312C223.955 91.3292 223.955 91.3271 223.955 91.325C223.955 91.3229 223.955 91.3208 223.955 91.3187C223.955 91.3167 223.955 91.3146 223.955 91.3125C223.955 91.3104 223.955 91.3083 223.955 91.3062C223.955 91.3042 223.955 91.3021 223.955 91.3C223.955 91.2979 223.955 91.2958 223.955 91.2937C223.955 91.2917 223.955 91.2896 223.955 91.2875C223.955 91.2854 223.955 91.2833 223.955 91.2812C223.955 91.2792 223.955 91.2771 223.955 91.275C223.955 91.2729 223.955 91.2708 223.955 91.2687C223.955 91.2667 223.955 91.2646 223.955 91.2625C223.955 91.2604 223.955 91.2583 223.955 91.2562C223.955 91.2542 223.955 91.2521 223.955 91.25C223.955 91.2479 223.955 91.2458 223.955 91.2437C223.955 91.2417 223.955 91.2396 223.955 91.2375C223.955 91.2354 223.955 91.2333 223.955 91.2312C223.955 91.2292 223.955 91.2271 223.955 91.225C223.955 91.2229 223.955 91.2208 223.955 91.2187C223.955 91.2167 223.955 91.2146 223.955 91.2125C223.955 91.2104 223.955 91.2083 223.955 91.2062C223.955 91.2042 223.955 91.2021 223.955 91.2C223.955 91.1979 223.955 91.1958 223.955 91.1937C223.955 91.1917 223.955 91.1896 223.955 91.1875C223.955 91.1854 223.955 91.1833 223.955 91.1812C223.955 91.1792 223.955 91.1771 223.955 91.175C223.955 91.1729 223.955 91.1708 223.955 91.1687C223.955 91.1667 223.955 91.1646 223.955 91.1625C223.955 91.1604 223.955 91.1583 223.955 91.1562C223.955 91.1542 223.955 91.1521 223.955 91.15C223.955 91.1479 223.955 91.1458 223.955 91.1437C223.955 91.1417 223.955 91.1396 223.955 91.1375C223.955 91.1354 223.955 91.1333 223.955 91.1312C223.955 91.1292 223.955 91.1271 223.955 91.125C223.955 91.1229 223.955 91.1208 223.955 91.1187C223.955 91.1167 223.955 91.1146 223.955 91.1125C223.955 91.1104 223.955 91.1083 223.955 91.1062C223.955 91.1042 223.955 91.1021 223.955 91.1C223.955 91.0979 223.955 91.0958 223.955 91.0937C223.955 91.0917 223.955 91.0896 223.955 91.0875C223.955 91.0854 223.955 91.0833 223.955 91.0812C223.955 91.0792 223.955 91.0771 223.955 91.075C223.955 91.0729 223.955 91.0708 223.955 91.0687C223.955 91.0667 223.955 91.0646 223.955 91.0625C223.955 91.0604 223.955 91.0583 223.955 91.0562C223.955 91.0542 223.955 91.0521 223.955 91.05C223.955 91.0479 223.955 91.0458 223.955 91.0437C223.955 91.0417 223.955 91.0396 223.955 91.0375C223.955 91.0354 223.955 91.0333 223.955 91.0312C223.955 91.0292 223.955 91.0271 223.955 91.025C223.955 91.0229 223.955 91.0208 223.955 91.0187C223.955 91.0167 223.955 91.0146 223.955 91.0125C223.955 91.0104 223.955 91.0083 223.955 91.0062C223.955 91.0042 223.955 91.0021 223.955 91C223.955 90.9979 223.955 90.9958 223.955 90.9937C223.955 90.9917 223.955 90.9896 223.955 90.9875C223.955 90.9854 223.955 90.9833 223.955 90.9812C223.955 90.9792 223.955 90.9771 223.955 90.975C223.955 90.9729 223.955 90.9708 223.955 90.9687C223.955 90.9667 223.955 90.9646 223.955 90.9625C223.955 90.9604 223.955 90.9583 223.955 90.9562C223.955 90.9542 223.955 90.9521 223.955 90.95C223.955 90.9479 223.955 90.9458 223.955 90.9437C223.955 90.9417 223.955 90.9396 223.955 90.9375C223.955 90.9354 223.955 90.9333 223.955 90.9312C223.955 90.9292 223.955 90.9271 223.955 90.925C223.955 90.9229 223.955 90.9208 223.955 90.9187C223.955 90.9167 223.955 90.9146 223.955 90.9125C223.955 90.9104 223.955 90.9083 223.955 90.9062C223.955 90.9042 223.955 90.9021 223.955 90.9C223.955 90.8979 223.955 90.8958 223.955 90.8937C223.955 90.8917 223.955 90.8896 223.955 90.8875C223.955 90.8854 223.955 90.8833 223.955 90.8812C223.955 90.8792 223.955 90.8771 223.955 90.875C223.955 90.8729 223.955 90.8708 223.955 90.8687C223.955 90.8667 223.955 90.8646 223.955 90.8625C223.955 90.8604 223.955 90.8583 223.955 90.8562C223.955 90.8542 223.955 90.8521 223.955 90.85C223.955 90.8479 223.955 90.8458 223.955 90.8437C223.955 90.8417 223.955 90.8396 223.955 90.8375C223.955 90.8354 223.955 90.8333 223.955 90.8312C223.955 90.8292 223.955 90.8271 223.955 90.825C223.955 90.8229 223.955 90.8208 223.955 90.8187C223.955 90.8167 223.955 90.8146 223.955 90.8125C223.955 90.8104 223.955 90.8083 223.955 90.8062C223.955 90.8042 223.955 90.8021 223.955 90.8C223.955 90.7979 223.955 90.7958 223.955 90.7937C223.955 90.7917 223.955 90.7896 223.955 90.7875C223.955 90.7854 223.955 90.7833 223.955 90.7812C223.955 90.7792 223.955 90.7771 223.955 90.775C223.955 90.7729 223.955 90.7708 223.955 90.7687C223.955 90.7667 223.955 90.7646 223.955 90.7625C223.955 90.7604 223.955 90.7583 223.955 90.7562C223.955 90.7542 223.955 90.7521 223.955 90.75C223.955 90.7479 223.955 90.7458 223.955 90.7437C223.955 90.7417 223.955 90.7396 223.955 90.7375C223.955 90.7354 223.955 90.7333 223.955 90.7312C223.955 90.7292 223.955 90.7271 223.955 90.725C223.955 90.7229 223.955 90.7208 223.955 90.7187C223.955 90.7167 223.955 90.7146 223.955 90.7125C223.955 90.7104 223.955 90.7083 223.955 90.7062C223.955 90.7042 223.955 90.7021 223.955 90.7C223.955 90.6979 223.955 90.6958 223.955 90.6937C223.955 90.6917 223.955 90.6896 223.955 90.6875C223.955 90.6854 223.955 90.6833 223.955 90.6812C223.955 90.6792 223.955 90.6771 223.955 90.675C223.955 90.6729 223.955 90.6708 223.955 90.6687C223.955 90.6667 223.955 90.6646 223.955 90.6625C223.955 90.6604 223.955 90.6583 223.955 90.6562C223.955 90.6542 223.955 90.6521 223.955 90.65C223.955 90.6479 223.955 90.6458 223.955 90.6437C223.955 90.6417 223.955 90.6396 223.955 90.6375C223.955 90.6354 223.955 90.6333 223.955 90.6312C223.955 90.6292 223.955 90.6271 223.955 90.625C223.955 90.6229 223.955 90.6208 223.955 90.6187C223.955 90.6167 223.955 90.6146 223.955 90.6125C223.955 90.6104 223.955 90.6083 223.955 90.6062C223.955 90.6042 223.955 90.6021 223.955 90.6C223.955 90.5979 223.955 90.5958 223.955 90.5937C223.955 90.5917 223.955 90.5896 223.955 90.5875C223.955 90.5854 223.955 90.5833 223.955 90.5812C223.955 90.5792 223.955 90.5771 223.955 90.575C223.955 90.5729 223.955 90.5708 223.955 90.5687C223.955 90.5667 223.955 90.5646 223.955 90.5625C223.955 90.5604 223.955 90.5583 223.955 90.5562C223.955 90.5542 223.955 90.5521 223.955 90.55C223.955 90.5479 223.955 90.5458 223.955 90.5437C223.955 90.5417 223.955 90.5396 223.955 90.5375C223.955 90.5354 223.955 90.5333 223.955 90.5312C223.955 90.5292 223.955 90.5271 223.955 90.525C223.955 90.5229 223.955 90.5208 223.955 90.5187C223.955 90.5167 223.955 90.5146 223.955 90.5125C223.955 90.5104 223.955 90.5083 223.955 90.5062C223.955 90.5042 223.955 90.5021 223.955 90.5C223.955 90.4979 223.955 90.4958 223.955 90.4937C223.955 90.4917 223.955 90.4896 223.955 90.4875C223.955 90.4854 223.955 90.4833 223.955 90.4812C223.955 90.4792 223.955 90.4771 223.955 90.475C223.955 90.4729 223.955 90.4708 223.955 90.4687C223.955 90.4667 223.955 90.4646 223.955 90.4625C223.955 90.4604 223.955 90.4583 223.955 90.4562C223.955 90.4542 223.955 90.4521 223.955 90.45C223.955 90.4479 223.955 90.4458 223.955 90.4437C223.955 90.4417 223.955 90.4396 223.955 90.4375C223.955 90.4354 223.955 90.4333 223.955 90.4312C223.955 90.4292 223.955 90.4271 223.955 90.425C223.955 90.4229 223.955 90.4208 223.955 90.4187C223.955 90.4167 223.955 90.4146 223.955 90.4125C223.955 90.4104 223.955 90.4083 223.955 90.4062C223.955 90.4042 223.955 90.4021 223.955 90.4C223.955 90.3979 223.955 90.3958 223.955 90.3937C223.955 90.3917 223.955 90.3896 223.955 90.3875C223.955 90.3854 223.955 90.3833 223.955 90.3812C223.955 90.3792 223.955 90.3771 223.955 90.375C223.955 90.3729 223.955 90.3708 223.955 90.3687C223.955 90.3667 223.955 90.3646 223.955 90.3625C223.955 90.3604 223.955 90.3583 223.955 90.3562C223.955 90.3542 223.955 90.3521 223.955 90.35C223.955 90.3479 223.955 90.3458 223.955 90.3437C223.955 90.3417 223.955 90.3396 223.955 90.3375C223.955 90.3354 223.955 90.3333 223.955 90.3312C223.955 90.3292 223.955 90.3271 223.955 90.325C223.955 90.3229 223.955 90.3208 223.955 90.3187C223.955 90.3167 223.955 90.3146 223.955 90.3125C223.955 90.3104 223.955 90.3083 223.955 90.3062C223.955 90.3042 223.955 90.3021 223.955 90.3C223.955 90.2979 223.955 90.2958 223.955 90.2937C223.955 90.2917 223.955 90.2896 223.955 90.2875C223.955 90.2854 223.955 90.2833 223.955 90.2812C223.955 90.2792 223.955 90.2771 223.955 90.275C223.955 90.2729 223.955 90.2708 223.955 90.2687C223.955 90.2667 223.955 90.2646 223.955 90.2625C223.955 90.2604 223.955 90.2583 223.955 90.2562C223.955 90.2542 223.955 90.2521 223.955 90.25C223.955 90.2479 223.955 90.2458 223.955 90.2437C223.955 90.2417 223.955 90.2396 223.955 90.2375C223.955 90.2354 223.955 90.2333 223.955 90.2312C223.955 90.2292 223.955 90.2271 223.955 90.225C223.955 90.2229 223.955 90.2208 223.955 90.2187C223.955 90.2167 223.955 90.2146 223.955 90.2125C223.955 90.2104 223.955 90.2083 223.955 90.2062C223.955 90.2042 223.955 90.2021 223.955 90.2C223.955 90.1979 223.955 90.1958 223.955 90.1937C223.955 90.1917 223.955 90.1896 223.955 90.1875C223.955 90.1854 223.955 90.1833 223.955 90.1812C223.955 90.1792 223.955 90.1771 223.955 90.175C223.955 90.1729 223.955 90.1708 223.955 90.1687C223.955 90.1667 223.955 90.1646 223.955 90.1625C223.955 90.1604 223.955 90.1583 223.955 90.1562C223.955 90.1542 223.955 90.1521 223.955 90.15C223.955 90.1479 223.955 90.1458 223.955 90.1437C223.955 90.1417 223.955 90.1396 223.955 90.1375C223.955 90.1354 223.955 90.1333 223.955 90.1312C223.955 90.1292 223.955 90.1271 223.955 90.125C223.955 90.1229 223.955 90.1208 223.955 90.1187C223.955 90.1167 223.955 90.1146 223.955 90.1125C223.955 90.1104 223.955 90.1083 223.955 90.1062C223.955 90.1042 223.955 90.1021 223.955 90.1C223.955 90.0979 223.955 90.0958 223.955 90.0937C223.955 90.0917 223.955 90.0896 223.955 90.0875C223.955 90.0854 223.955 90.0833 223.955 90.0812C223.955 90.0792 223.955 90.0771 223.955 90.075C223.955 90.0729 223.955 90.0708 223.955 90.0687C223.955 90.0667 223.955 90.0646 223.955 90.0625C223.955 90.0604 223.955 90.0583 223.955 90.0562C223.955 90.0542 223.955 90.0521 223.955 90.05C223.955 90.0479 223.955 90.0458 223.955 90.0437C223.955 90.0417 223.955 90.0396 223.955 90.0375C223.955 90.0354 223.955 90.0333 223.955 90.0312C223.955 90.0292 223.955 90.0271 223.955 90.025C223.955 90.0229 223.955 90.0208 223.955 90.0187C223.955 90.0167 223.955 90.0146 223.955 90.0125C223.955 90.0104 223.955 90.0083 223.955 90.0062C223.955 90.0042 223.955 90.0021 223.955 90C223.955 89.9979 223.955 89.9958 223.955 89.9937C223.955 89.9917 223.955 89.9896 223.955 89.9875C223.955 89.9854 223.955 89.9833 223.955 89.9812C223.955 89.9792 223.955 89.9771 223.955 89.975C223.955 89.9729 223.955 89.9708 223.955 89.9687C223.955 89.9667 223.955 89.9646 223.955 89.9625C223.955 89.9604 223.955 89.9583 223.955 89.9562C223.955 89.9542 223.955 89.9521 223.955 89.95C223.955 89.9479 223.955 89.9458 223.955 89.9437C223.955 89.9417 223.955 89.9396 223.955 89.9375C223.955 89.9354 223.955 89.9333 223.955 89.9312C223.955 89.9292 223.955 89.9271 223.955 89.925C223.955 89.9229 223.955 89.9208 223.955 89.9187C223.955 89.9167 223.955 89.9146 223.955 89.9125C223.955 89.9104 223.955 89.9083 223.955 89.9062C223.955 89.9042 223.955 89.9021 223.955 89.9C223.955 89.8979 223.955 89.8958 223.955 89.8937C223.955 89.8917 223.955 89.8896 223.955 89.8875C223.955 89.8854 223.955 89.8833 223.955 89.8812C223.955 89.8792 223.955 89.8771 223.955 89.875C223.955 89.8729 223.955 89.8708 223.955 89.8687C223.955 89.8667 223.955 89.8646 223.955 89.8625C223.955 89.8604 223.955 89.8583 223.955 89.8562C223.955 89.8542 223.955 89.8521 223.955 89.85C223.955 89.8479 223.955 89.8458 223.955 89.8437C223.955 89.8417 223.955 89.8396 223.955 89.8375C223.955 89.8354 223.955 89.8333 223.955 89.8312C223.955 89.8292 223.955 89.8271 223.955 89.825C223.955 89.8229 223.955 89.8208 223.955 89.8187C223.955 89.8167 223.955 89.8146 223.955 89.8125C223.955 89.8104 223.955 89.8083 223.955 89.8062C223.955 89.8042 223.955 89.8021 223.955 89.8C223.955 89.7979 223.955 89.7958 223.955 89.7937C223.955 89.7917 223.955 89.7896 223.955 89.7875C223.955 89.7854 223.955 89.7833 223.955 89.7812C223.955 89.7792 223.955 89.7771 223.955 89.775C223.955 89.7729 223.955 89.7708 223.955 89.7687C223.955 89.7667 223.955 89.7646 223.955 89.7625C223.955 89.7604 223.955 89.7583 223.955 89.7562C223.955 89.7542 223.955 89.7521 223.955 89.75C223.955 89.7479 223.955 89.7458 223.955 89.7437C223.955 89.7417 223.955 89.7396 223.955 89.7375C223.955 89.7354 223.955 89.7333 223.955 89.7312C223.955 89.7292 223.955 89.7271 223.955 89.725C223.955 89.7229 223.955 89.7208 223.955 89.7187C223.955 89.7167 223.955 89.7146 223.955 89.7125C223.955 89.7104 223.955 89.7083 223.955 89.7062C223.955 89.7042 223.955 89.7021 223.955 89.7C223.955 89.6979 223.955 89.6958 223.955 89.6937C223.955 89.6917 223.955 89.6896 223.955 89.6875C223.955 89.6854 223.955 89.6833 223.955 89.6812C223.955 89.6792 223.955 89.6771 223.955 89.675C223.955 89.6729 223.955 89.6708 223.955 89.6687C223.955 89.6667 223.955 89.6646 223.955 89.6625C223.955 89.6604 223.955 89.6583 223.955 89.6562C223.955 89.6542 223.955 89.6521 223.955 89.65C223.955 89.6479 223.955 89.6458 223.955 89.6437C223.955 89.6417 223.955 89.6396 223.955 89.6375C223.955 89.6354 223.955 89.6333 223.955 89.6312C223.955 89.6292 223.955 89.6271 223.955 89.625C223.955 89.6229 223.955 89.6208 223.955 89.6187C223.955 89.6167 223.955 89.6146 223.955 89.6125C223.955 89.6104 223.955 89.6083 223.955 89.6062C223.955 89.6042 223.955 89.6021 223.955 89.6C223.955 89.5979 223.955 89.5958 223.955 89.5937C223.955 89.5917 223.955 89.5896 223.955 89.5875C223.955 89.5854 223.955 89.5833 223.955 89.5812C223.955 89.5792 223.955 89.5771 223.955 89.575C223.955 89.5729 223.955 89.5708 223.955 89.5687C223.955 89.5667 223.955 89.5646 223.955 89.5625C223.955 89.5604 223.955 89.5583 223.955 89.5562C223.955 89.5542 223.955 89.5521 223.955 89.55C223.955 89.5479 223.955 89.5458 223.955 89.5437C223.955 89.5417 223.955 89.5396 223.955 89.5375C223.955 89.5354 223.955 89.5333 223.955 89.5312C223.955 89.5292 223.955 89.5271 223.955 89.525C223.955 89.5229 223.955 89.5208 223.955 89.5187C223.955 89.5167 223.955 89.5146 223.955 89.5125C223.955 89.5104 223.955 89.5083 223.955 89.5062C223.955 89.5042 223.955 89.5021 223.955 89.5C223.955 89.4979 223.955 89.4958 223.955 89.4937C223.955 89.4917 223.955 89.4896 223.955 89.4875C223.955 89.4854 223.955 89.4833 223.955 89.4812C223.955 89.4792 223.955 89.4771 223.955 89.475C223.955 89.4729 223.955 89.4708 223.955 89.4687C223.955 89.4667 223.955 89.4646 223.955 89.4625C223.955 89.4604 223.955 89.4583 223.955 89.4562C223.955 89.4542 223.955 89.4521 223.955 89.45C223.955 89.4479 223.955 89.4458 223.955 89.4437C223.955 89.4417 223.955 89.4396 223.955 89.4375C223.955 89.4354 223.955 89.4333 223.955 89.4312C223.955 89.4292 223.955 89.4271 223.955 89.425C223.955 89.4229 223.955 89.4208 223.955 89.4187C223.955 89.4167 223.955 89.4146 223.955 89.4125C223.955 89.4104 223.955 89.4083 223.955 89.4062C223.955 89.4042 223.955 89.4021 223.955 89.4H215.955ZM215.955 92.6C215.955 93.3994 215.892 93.7583 215.874 93.8299L223.635 95.7701C223.884 94.7751 223.955 93.6673 223.955 92.6H215.955ZM219.755 90.8H130.555V98.8H219.755V90.8ZM126.571 95.1557C127.285 103.155 129.512 110.406 133.311 116.835L140.198 112.765C137.064 107.46 135.158 101.378 134.539 94.4443L126.571 95.1557ZM133.367 116.927C137.282 123.162 142.316 128.204 148.449 132.001L152.66 125.199C147.594 122.063 143.427 117.904 140.142 112.673L133.367 116.927ZM148.544 132.058C154.891 135.748 161.786 137.6 169.155 137.6V129.6C163.19 129.6 157.685 128.118 152.565 125.142L148.544 132.058ZM169.155 137.6C176.671 137.6 183.76 135.675 190.356 131.863L186.354 124.937C180.95 128.059 175.238 129.6 169.155 129.6V137.6ZM190.323 131.882C197.095 128.055 202.034 122.903 204.831 116.376L197.478 113.224C195.476 117.897 191.881 121.812 186.386 124.918L190.323 131.882ZM200.108 118.661L211.908 121.861L214.002 114.139L202.202 110.939L200.108 118.661ZM209.283 116.412C207.399 120.771 204.488 124.782 200.464 128.44L205.845 134.36C210.621 130.018 214.244 125.096 216.626 119.588L209.283 116.412ZM200.464 128.44C196.465 132.076 191.707 134.955 186.141 137.058L188.968 144.542C195.402 142.111 201.044 138.724 205.845 134.36L200.464 128.44ZM186.188 137.041C180.797 139.001 174.93 140 168.555 140V148C175.779 148 182.579 146.865 188.922 144.559L186.188 137.041ZM130.155 89H207.155V81H130.155V89ZM211.145 84.72C210.571 76.5475 208.334 69.2298 204.342 62.8729L197.567 67.1271C200.776 72.2369 202.671 78.2525 203.165 85.28L211.145 84.72ZM204.378 62.9303C200.559 56.6155 195.457 51.6528 189.104 48.1072L185.205 55.0928C190.319 57.9472 194.417 61.9179 197.532 67.0697L204.378 62.9303ZM189.201 48.1628C182.954 44.4447 176.042 42.6 168.555 42.6V50.6C174.667 50.6 180.155 52.0886 185.109 55.0372L189.201 48.1628ZM168.555 42.6C161.067 42.6 154.155 44.4447 147.909 48.1628L152.001 55.0372C156.954 52.0886 162.442 50.6 168.555 50.6V42.6ZM147.97 48.127C141.748 51.6827 136.672 56.7083 132.745 63.1079L139.564 67.2921C142.837 61.9584 146.962 57.9173 151.939 55.073L147.97 48.127ZM132.732 63.1303C128.901 69.4662 126.738 76.692 126.165 84.715L134.145 85.285C134.638 78.3747 136.475 72.4005 139.578 67.2697L132.732 63.1303Z" fill="#080C7A"/>
</svg>
